<svg xmlns="http://www.w3.org/2000/svg" viewBox="0 0 1366.25 901.25"><defs><style>.cls-1{fill:#86b9d3;stroke:#86b9d3;stroke-linecap:round;stroke-linejoin:round;stroke-width:0.5px;}.cls-2{fill:none;stroke:#1d1d1b;stroke-miterlimit:10;stroke-width:0.25px;}</style></defs><g id="chapeau"><path class="cls-1" d="M921.5,220.5l30-60.11A12,12,0,0,1,964.39,154c49,8.9,76.76,27.41,93.83,50.78a9.15,9.15,0,0,1,.72,9.64L1028.5,272.5c21.2,25.81,21.76,43.6-4.69,34.82a68.77,68.77,0,0,1-11.15-4.91L909.21,246.06a73.23,73.23,0,0,1-16-11.71C880.36,221.9,882.63,214.76,921.5,220.5Z" transform="translate(0.13 0.13)"/></g><g id="texte"><path d="M978.69,242.3v-.55a4.16,4.16,0,0,0,2.76-1.45,5.92,5.92,0,0,0,.66-3.36V223.67a11.42,11.42,0,0,0-.17-2.32,2.81,2.81,0,0,0-.65-1.23,4.31,4.31,0,0,0-2.6-1.27v-.54h10.95v.54a4.22,4.22,0,0,0-2.78,1.46,2.92,2.92,0,0,0-.51,1.22,10.76,10.76,0,0,0-.16,2.14v13.27a9.89,9.89,0,0,0,.19,2.26,2.83,2.83,0,0,0,.66,1.29,4.19,4.19,0,0,0,2.6,1.26v.55Zm2.46-.9h5.13l-.69-.51a3.16,3.16,0,0,1-.76-.7,1.52,1.52,0,0,1-.17-.79,3.46,3.46,0,0,0,0-.38c0-.06,0-.13,0-.2v-17c0-.07,0-.14,0-.21a3.56,3.56,0,0,0,0-.37,1.47,1.47,0,0,1,.17-.79,3.15,3.15,0,0,1,.76-.71l1-.74h-5.77l1,.74a3.18,3.18,0,0,1,.78.69,1.61,1.61,0,0,1,.15.81,5.72,5.72,0,0,1,0,.58v17a5.72,5.72,0,0,1,0,.58,1.64,1.64,0,0,1-.15.8,3.18,3.18,0,0,1-.78.69Z" transform="translate(0.13 0.13)"/></g><g id="Calque_16" data-name="Calque 16"><rect class="cls-2" x="0.13" y="0.13" width="1366" height="901"/></g></svg>