<svg xmlns="http://www.w3.org/2000/svg" viewBox="0 0 1366.25 901.25"><defs><style>.cls-1{fill:#86b9d3;stroke:#86b9d3;stroke-linecap:round;stroke-linejoin:round;stroke-width:0.5px;}.cls-2{fill:none;stroke:#1d1d1b;stroke-miterlimit:10;stroke-width:0.25px;}</style></defs><g id="parapluie"><polyline class="cls-1" points="1266.2 633.09 1266.2 654.17 1269.91 654.17 1269.91 633.09"/><path class="cls-1" d="M1242.5,623.5a22.46,22.46,0,0,0-.18,7.58,2,2,0,0,0,1.61,1.76,14.11,14.11,0,0,0,4.24-.08,1.83,1.83,0,0,0,1.55-1.64,39,39,0,0,0-.15-7.62Z" transform="translate(0.13 0.13)"/><path class="cls-1" d="M1251.5,598.5h-8.85c4.18-12,14.76-14.48,23.33-10a15.85,15.85,0,0,1,8.35,14.58l-.71,27.32a2.69,2.69,0,0,1-2.68,2.61h-5.87a2.29,2.29,0,0,1-2.28-2.34l.64-28.93a6.44,6.44,0,0,0-5.18-6.58C1256,594.75,1253.5,595.5,1251.5,598.5Z" transform="translate(0.13 0.13)"/><path class="cls-1" d="M1266.08,654.05l-6.52-14.23a1.31,1.31,0,0,0-2.32-.11l-2.74,4.79-9.62-5.24a.84.84,0,0,0-1.24.81l19.57,214.22a3.53,3.53,0,0,0,3.52,3.21h0l.73,18.14a.9.9,0,0,0,.9.86h.82a1.32,1.32,0,0,0,1.32-1.32V857.75l.86-.07a2.32,2.32,0,0,0,2.13-2.33A1204.27,1204.27,0,0,1,1287,672a118,118,0,0,0,.21-13l-.78-19.22a.86.86,0,0,0-1.53-.51l-8.43,10.25-6.72,1.84" transform="translate(0.13 0.13)"/></g><g id="texte"><path d="M1253.35,697.12v-.55a4.16,4.16,0,0,0,2.76-1.45,5.92,5.92,0,0,0,.66-3.36V678.49a11.42,11.42,0,0,0-.17-2.32,2.81,2.81,0,0,0-.65-1.23,4.31,4.31,0,0,0-2.6-1.27v-.55h11v.55a4.22,4.22,0,0,0-2.78,1.46,3.06,3.06,0,0,0-.51,1.22,10.76,10.76,0,0,0-.16,2.14v13.27A9.89,9.89,0,0,0,1261,694a2.83,2.83,0,0,0,.66,1.29,4.24,4.24,0,0,0,2.6,1.26v.55Zm2.46-.9h5.13l-.69-.51a3.16,3.16,0,0,1-.76-.7,1.52,1.52,0,0,1-.17-.79,3.46,3.46,0,0,0,0-.38c0-.06,0-.13,0-.2v-17c0-.07,0-.15,0-.22a3.24,3.24,0,0,0,0-.36,1.54,1.54,0,0,1,.17-.8,3.38,3.38,0,0,1,.76-.7l1-.74h-5.77l1,.74a3.18,3.18,0,0,1,.78.69,1.61,1.61,0,0,1,.15.81,5.62,5.62,0,0,1,0,.58v17a5.72,5.72,0,0,1,0,.58,1.64,1.64,0,0,1-.15.8,3.18,3.18,0,0,1-.78.69Z" transform="translate(0.13 0.13)"/><path d="M1266.23,697.12v-.55a4.11,4.11,0,0,0,2.76-1.45,5.82,5.82,0,0,0,.67-3.36V678.49a10.57,10.57,0,0,0-.18-2.32,2.62,2.62,0,0,0-.65-1.23,4.25,4.25,0,0,0-2.6-1.27v-.55h11v.55a4.24,4.24,0,0,0-2.78,1.46,3.06,3.06,0,0,0-.51,1.22,11.73,11.73,0,0,0-.15,2.14v13.27a10.63,10.63,0,0,0,.18,2.26,2.83,2.83,0,0,0,.66,1.29,4.27,4.27,0,0,0,2.6,1.26v.55Zm2.46-.9h5.13l-.68-.51a3.26,3.26,0,0,1-.77-.7,1.53,1.53,0,0,1-.16-.79c0-.19,0-.31,0-.38a1.27,1.27,0,0,1,0-.2v-17a1.62,1.62,0,0,1,0-.22c0-.07,0-.19,0-.36a1.55,1.55,0,0,1,.16-.8,3.49,3.49,0,0,1,.77-.7l1-.74h-5.76l1,.74a3.08,3.08,0,0,1,.77.69,1.49,1.49,0,0,1,.16.81c0,.19,0,.39,0,.58v17c0,.19,0,.38,0,.58a1.52,1.52,0,0,1-.16.8,3.08,3.08,0,0,1-.77.69Z" transform="translate(0.13 0.13)"/></g><g id="Calque_16" data-name="Calque 16"><rect class="cls-2" x="0.13" y="0.13" width="1366" height="901"/></g></svg>