<svg xmlns="http://www.w3.org/2000/svg" viewBox="0 0 1366.25 901.25"><defs><style>.cls-1{fill:#86b9d3;stroke:#86b9d3;stroke-linecap:round;stroke-linejoin:round;stroke-width:0.5px;}.cls-2{fill:none;stroke:#1d1d1b;stroke-miterlimit:10;stroke-width:0.25px;}</style></defs><g id="Calque_17" data-name="Calque 17"><path class="cls-1" d="M583.71,503.1c.13,7.22-3.67,13-11.21,17.4a51.29,51.29,0,0,1,2,16c7.36.73,9.53,3.45,7,8-.38-.77-2.06-.09-5,2,.9-4.33,0-7.12-3-8-2.18.79-4.12,1.68-5,3,2.17,2.74,2.77,5.72,0,9.23-2.06.09-3.71-2.1-5-6.23h-4.16a1.68,1.68,0,0,0-1.67,1.83l.59,6.56a7,7,0,0,1-1.27,4.75l-8.67,12.28a4.26,4.26,0,0,1-4.82,1.58h0l-7.69,9.23a4,4,0,0,1-5.31.77h0l-1.73,1.73a2,2,0,0,1-2.67.15l-1.4-1.12A3.22,3.22,0,0,1,524,578a66.52,66.52,0,0,1,5.55-7.41,5.46,5.46,0,0,0,1.23-2.56c1.84-9.28,7-20.47,13-32.21a7.43,7.43,0,0,0,.82-2.85l.72-9.41a2.27,2.27,0,0,0-1.9-2.42l-2.47-.41a3.47,3.47,0,0,1-2.3-1.49l-.51-.77a3.1,3.1,0,0,0-1.81-1.28l-1.65-.41a2,2,0,0,1-1.5-1.5l-.45-1.79A2.45,2.45,0,0,0,531.6,512l-5.23-3a2.65,2.65,0,0,1-1.19-1.46l-.68-2-4.35-6.09a3.5,3.5,0,0,1-.65-2h0a1.72,1.72,0,0,0-1.28-1.66l-3-.78a3.87,3.87,0,0,1-2.5-2L511,489.41a3.35,3.35,0,0,0-1.33-1.41l-4.44-2.54a4.09,4.09,0,0,1-2-2.87l-.48-2.9a2.78,2.78,0,0,0-1.21-1.86l-1-.67a2.84,2.84,0,0,1-1.22-1.82l-.64-3.21a2.05,2.05,0,0,0-.6-1.06l-9.68-8.8a2.59,2.59,0,0,1-.85-1.91V456l-10.19-9.75a2.64,2.64,0,0,1-.81-1.9v-8.32a.7.7,0,0,1,1.14-.54c17.65,14.34,35.73,29.18,41.86,30l-1-6-2.24-2.24a5,5,0,0,1-.75-6.11l1-1.65-3.44-6a2.58,2.58,0,0,1-.2-2.07l2.64-7.92-4.32-3.6a3,3,0,0,1-.87-3.43l1.19-3-.58-4.68a1.83,1.83,0,0,1,2.72-1.82,58.9,58.9,0,0,1,8.86,6.5l-2.64-8.57a1.43,1.43,0,0,1,2.32-1.49c7.44,6.68,17.81,19.72,28.32,33.06a26.72,26.72,0,0,1,7.7,7,8.4,8.4,0,0,1,1.54,4l1.76,15a40.76,40.76,0,0,0,7,12.17,8.52,8.52,0,0,0,6.38,2.83h2.92a4.79,4.79,0,0,0,2.89-1c7.81-5.93,17.37-4.69,17.81,7a9.84,9.84,0,0,1,4,9c-2.74-1.62-5.26-2.9-7-3-1.46,1.26-4.68,1.62-9.28,1.27A2.32,2.32,0,0,0,583.71,503.1Z" transform="translate(0.13 0.13)"/></g><g id="texte"><path d="M534.32,511.84v-.55a4.17,4.17,0,0,0,2.76-1.46,5.85,5.85,0,0,0,.66-3.35V493.2a10.79,10.79,0,0,0-.17-2.32,2.81,2.81,0,0,0-.65-1.23,4.36,4.36,0,0,0-2.6-1.26v-.55h10.95v.55a4.18,4.18,0,0,0-2.78,1.46,3.06,3.06,0,0,0-.51,1.22,11.53,11.53,0,0,0-.16,2.13v13.28a9.79,9.79,0,0,0,.19,2.25,2.92,2.92,0,0,0,.66,1.3,4.3,4.3,0,0,0,2.6,1.26v.55Zm2.46-.9h5.13l-.69-.51a3.38,3.38,0,0,1-.76-.7,1.52,1.52,0,0,1-.17-.79,3.36,3.36,0,0,0,0-.38V491.11a3.35,3.35,0,0,0,0-.37,1.52,1.52,0,0,1,.17-.79,3.38,3.38,0,0,1,.76-.7l1-.74h-5.77l1,.74a3.44,3.44,0,0,1,.78.68,1.66,1.66,0,0,1,.15.81c0,.2,0,.4,0,.58v17c0,.18,0,.38,0,.58a1.64,1.64,0,0,1-.15.8,3.18,3.18,0,0,1-.78.69Z" transform="translate(0.13 0.13)"/><path d="M561.47,507.14,567,494.47a7.2,7.2,0,0,0,.7-2.72,2.74,2.74,0,0,0-.94-2.18,6.09,6.09,0,0,0-2.86-1.18v-.55H573v.53a6.69,6.69,0,0,0-2,1.13,8.29,8.29,0,0,0-1.64,1.94,27.23,27.23,0,0,0-1.7,3.28l-7.8,17.7h-.39L551,493.29a14.94,14.94,0,0,0-2-3.61,4.37,4.37,0,0,0-2.39-1.29v-.55H558v.55l-.39,0a5.29,5.29,0,0,0-2.37.59,1.63,1.63,0,0,0-.69,1.46,4.5,4.5,0,0,0,.46,1.81Zm-.86,2-7.2-16.59a5.16,5.16,0,0,1-.51-2,2.05,2.05,0,0,1,.22-1,3.89,3.89,0,0,1,.88-1h-5.38a7,7,0,0,1,1.82,2.14c.27.49.49.93.68,1.3s.36.75.51,1.11l8,18.21Zm5.58-20.6a5.26,5.26,0,0,1,1.5,1.27,3,3,0,0,1,.52,1.54,8.76,8.76,0,0,1,1-1.6,7.32,7.32,0,0,1,1.3-1.21Z" transform="translate(0.13 0.13)"/></g><g id="Calque_16" data-name="Calque 16"><rect class="cls-2" x="0.13" y="0.13" width="1366" height="901"/></g></svg>