<svg xmlns="http://www.w3.org/2000/svg" viewBox="0 0 1366.25 901.25"><defs><style>.cls-1{fill:#86b9d3;stroke:#86b9d3;stroke-linecap:round;stroke-linejoin:round;}.cls-2{fill:none;stroke:#1d1d1b;stroke-miterlimit:10;stroke-width:0.25px;}</style></defs><g id="femme_3" data-name="femme 3"><path class="cls-1" d="M461.5,350.5c1.82-10.12,5.4-18.28,13-22,8-4.09,10.86-12.26,13-21,2.45-10.56,5.13-16.23,8-18l-3-2c5.54-5.27,11.21-8,17-8,1.73-13.36,5.36-19.47,11-18v-3.23a26.25,26.25,0,0,1-3-6.77l-1-3c-6.26-8.86,1-15,10-10,11.11,2.6,12,7,8,11l-1,3c1.93.95,2.37,2.26,1,4a18.91,18.91,0,0,1-7,7v5h14l9-5,6-4c1.37.56,3.62.57,6.43.22a1.6,1.6,0,0,1,1.8,1.41,29.35,29.35,0,0,1,0,5.13,2.75,2.75,0,0,1-2.11,2.43l-12.1,2.81c-8.84,4.55-17.27,8.13-25,10l-2.19,12a80.07,80.07,0,0,1,.19,18c-1.76,2.27-3.44,3.79-5,4a600.27,600.27,0,0,1,6,65Z" transform="translate(0.13 0.13)"/><path class="cls-1" d="M653.5,226.5c-11,.63-15.35-3.83-16-11.09a4.23,4.23,0,0,1,2.58-4.24c6.56-2.67,12.17-.22,17.26,5.11a2.14,2.14,0,0,0,2.47.39l1.27-.95a1.7,1.7,0,0,1,2.39.35l6.29,8.5a1.89,1.89,0,0,1,.17,2l-1.48,3-1,3c3,7.63,8.71,8.29,16,5-2.94,4.92-6.08,9.56-17,3l2.83,10.61a1.73,1.73,0,0,1-2.88,1.67,18.76,18.76,0,0,1-5-9.28c.47,6.43-1.27,12.78-4.09,19.1a1.21,1.21,0,0,1-2.32-.59c.41-4.84.68-9.15.41-10.51-.64-3.23,1.58-21.8,2-21Z" transform="translate(0.13 0.13)"/></g><g id="texte"><path d="M480.38,352v-.54a4.12,4.12,0,0,0,2.76-1.46,5.77,5.77,0,0,0,.67-3.36V333.37a10.64,10.64,0,0,0-.18-2.32,2.62,2.62,0,0,0-.65-1.23,4.19,4.19,0,0,0-2.6-1.26V328h10.95v.55a4.23,4.23,0,0,0-2.78,1.45,3.17,3.17,0,0,0-.51,1.23,11.69,11.69,0,0,0-.15,2.13v13.27a10.57,10.57,0,0,0,.18,2.26,2.83,2.83,0,0,0,.66,1.29,4.28,4.28,0,0,0,2.6,1.27V352Zm2.46-.89H488l-.68-.51a3.49,3.49,0,0,1-.77-.7,1.55,1.55,0,0,1-.16-.8c0-.18,0-.31,0-.37a1.48,1.48,0,0,1,0-.21v-17a1.48,1.48,0,0,1,0-.21c0-.07,0-.19,0-.37a1.53,1.53,0,0,1,.16-.79,3.26,3.26,0,0,1,.77-.7l1-.74h-5.76l1,.74a3.11,3.11,0,0,1,.77.68,1.54,1.54,0,0,1,.16.81c0,.2,0,.39,0,.58v17c0,.19,0,.38,0,.58a1.5,1.5,0,0,1-.16.8,2.89,2.89,0,0,1-.77.7Z" transform="translate(0.13 0.13)"/><path d="M503.55,341.14l-4.13,5.59a4.28,4.28,0,0,0-1,2.39c0,1.37,1.19,2.15,3.56,2.34V352h-9.24v-.52a5.56,5.56,0,0,0,1.88-.88,17.94,17.94,0,0,0,1.5-1.26,16.56,16.56,0,0,0,1.33-1.33l1-1.17.21-.25,4.47-6-4.22-6.36a.84.84,0,0,0-.11-.18c-.06-.09-.15-.22-.28-.38l-1-1.46a13.68,13.68,0,0,0-2.2-2.63,4,4,0,0,0-2-1V328h11.14v.55a4.71,4.71,0,0,0-2.14.41,1.31,1.31,0,0,0-.6,1.22,4,4,0,0,0,.82,2.07l3.31,5.07,3.2-4.05a5.56,5.56,0,0,0,1.49-2.88c0-1.09-.94-1.7-2.83-1.84V328h8.44v.53a5.56,5.56,0,0,0-1.85.71,11.16,11.16,0,0,0-2,1.48c-.65.61-1.29,1.27-1.9,2l-.63.72-3.57,4.49,6,8.86a21.88,21.88,0,0,0,2.81,3.48,4.65,4.65,0,0,0,2.33,1.21V352H506v-.54a9,9,0,0,0,1.74-.26,1.65,1.65,0,0,0,.87-.49,1.34,1.34,0,0,0,.28-.89,3.36,3.36,0,0,0-.67-1.74Zm-5.22,10a2.64,2.64,0,0,1-.6-1.6,7.57,7.57,0,0,1,.11-.93,15.11,15.11,0,0,1-2.85,2.53Zm15.59,0c-.43-.38-.78-.69-1-.95a15.59,15.59,0,0,1-1-1.2c-.95-1.3-1.51-2.08-1.68-2.35l-8.71-13.05a7,7,0,0,1-1.47-3.25,2,2,0,0,1,.93-1.63h-5.7a7.79,7.79,0,0,1,1.38,1.19,24.72,24.72,0,0,1,1.68,2.25l1.09,1.57.46.67,8.93,13.41a5.14,5.14,0,0,1,.54,1.05,2.74,2.74,0,0,1,.25,1,2.6,2.6,0,0,1-.49,1.32ZM510,328.66a2,2,0,0,1,1.08,1.65,3.49,3.49,0,0,1-.12.69,14,14,0,0,1,2.53-2.34Z" transform="translate(0.13 0.13)"/></g><g id="Calque_16" data-name="Calque 16"><rect class="cls-2" x="0.13" y="0.13" width="1366" height="901"/></g></svg>