<svg xmlns="http://www.w3.org/2000/svg" viewBox="0 0 1366.25 901.25"><defs><style>.cls-1{fill:#86b9d3;stroke:#86b9d3;stroke-linecap:round;stroke-linejoin:round;}.cls-2{fill:none;stroke:#1d1d1b;stroke-miterlimit:10;stroke-width:0.25px;}</style></defs><g id="oiseaux_1" data-name="oiseaux 1"><path class="cls-1" d="M863.5,26.5c4.72-3.72,9-2.8,13,2a11.35,11.35,0,0,1,7,3h-5.56l-6.44,4c8.78,1,14.9,4.53,19,10a12.55,12.55,0,0,0,13-3,21,21,0,0,1-4,7,6.4,6.4,0,0,0,5-1,11,11,0,0,1-2,4,21.37,21.37,0,0,0,8,1c-.17,12.16-14.83,12.06-33,9-7.92,0-12.36-1.79-16-4l-1,4a11.82,11.82,0,0,1-5-4,20.18,20.18,0,0,1-9-1c1.92-5.17,3.23-9.66,3.51-13a151.71,151.71,0,0,1-20.51,13c-6.61-.93-12-2.16-15-4l6-4a28,28,0,0,1-10.08-5c2.44-.52,5-1,6.08-3a17.89,17.89,0,0,1,5.57-9.94,2.81,2.81,0,0,1,2.87-.4A46.08,46.08,0,0,0,835.5,33.5C845.88,27.7,855.71,23.7,863.5,26.5Z" transform="translate(0.13 0.13)"/></g><g id="texte"><path d="M862,50.14l5.5-12.67a7.24,7.24,0,0,0,.71-2.72,2.77,2.77,0,0,0-.94-2.18,6.09,6.09,0,0,0-2.86-1.18v-.55h9.12v.53a6.76,6.76,0,0,0-2,1.13,8.5,8.5,0,0,0-1.64,1.94,25.85,25.85,0,0,0-1.7,3.28l-7.8,17.7H860L851.5,36.29a14.66,14.66,0,0,0-2-3.61,4.37,4.37,0,0,0-2.39-1.29v-.55h11.42v.55l-.38,0a5.38,5.38,0,0,0-2.38.59,1.64,1.64,0,0,0-.68,1.46,4.5,4.5,0,0,0,.46,1.81Zm-.86,2L854,35.52a5.16,5.16,0,0,1-.51-2,2.06,2.06,0,0,1,.23-1,3.7,3.7,0,0,1,.88-1h-5.38A7.11,7.11,0,0,1,851,33.69c.27.49.5.93.69,1.3s.36.75.51,1.11l8,18.21Zm5.57-20.6a5.19,5.19,0,0,1,1.51,1.27,2.94,2.94,0,0,1,.51,1.54,8.74,8.74,0,0,1,1-1.6,7,7,0,0,1,1.3-1.21Z" transform="translate(0.13 0.13)"/></g><g id="Calque_16" data-name="Calque 16"><rect class="cls-2" x="0.13" y="0.13" width="1366" height="901"/></g></svg>