<svg xmlns="http://www.w3.org/2000/svg" viewBox="0 0 1366.25 901.25"><defs><style>.cls-1{fill:#86b9d3;stroke:#86b9d3;stroke-linecap:round;stroke-linejoin:round;stroke-width:0.5px;}.cls-2{fill:none;stroke:#1d1d1b;stroke-miterlimit:10;stroke-width:0.25px;}</style></defs><g id="oiseaux_balustrade" data-name="oiseaux balustrade"><path class="cls-1" d="M687.5,541.5c1.3-6.27-1-9-6-9,1-11-14-11-17.13,0-.7,6.43-11.81,14.14-19.78,22.12a19,19,0,0,0-5.53,16.48,11.46,11.46,0,0,0,4.2,7.58,1.71,1.71,0,0,0,2.24-.18h0l7,7c.38,1-2.9,3.17-8,6l3,7,6-3v-2l3-5,5,3-5.08,7a9.83,9.83,0,0,0,2.52,5.37,2.12,2.12,0,0,0,1.33.74l6.23.89v-11l5-3c.24,1.76-.39,3.87,4,4a51,51,0,0,0,10.89,7.13,1,1,0,0,0,1.41-1.3,47.55,47.55,0,0,0-8.3-14.83c3.48-9.69,3.07-20.09-6.29-32.11a4.85,4.85,0,0,1-1-2.24,20.57,20.57,0,0,1,0-6,3.52,3.52,0,0,1,1.63-2.51,49.75,49.75,0,0,0,6.65-5.17A9.34,9.34,0,0,1,687.5,541.5Z" transform="translate(0.13 0.13)"/></g><g id="texte"><path d="M658.21,571.61l5.5-12.68a7.2,7.2,0,0,0,.7-2.72,2.72,2.72,0,0,0-.94-2.17,6.09,6.09,0,0,0-2.86-1.19v-.54h9.13v.52a6.45,6.45,0,0,0-2,1.14,8,8,0,0,0-1.65,1.93,26.71,26.71,0,0,0-1.69,3.28l-7.81,17.7h-.39l-8.5-19.13a14.6,14.6,0,0,0-2-3.61,4.43,4.43,0,0,0-2.39-1.29v-.54h11.43v.54l-.39,0a5.21,5.21,0,0,0-2.37.6,1.61,1.61,0,0,0-.69,1.45,4.76,4.76,0,0,0,.46,1.82Zm-.87,2-7.2-16.6a5.16,5.16,0,0,1-.51-2,2,2,0,0,1,.23-1,3.53,3.53,0,0,1,.88-1h-5.38a7.26,7.26,0,0,1,1.81,2.14c.27.5.5.93.68,1.3s.36.75.51,1.11l8,18.21ZM662.92,553a5.43,5.43,0,0,1,1.5,1.27,3,3,0,0,1,.52,1.55,7.93,7.93,0,0,1,1-1.6,6.71,6.71,0,0,1,1.3-1.22Z" transform="translate(0.13 0.13)"/><path d="M671,576.3v-.55a4.11,4.11,0,0,0,2.76-1.45,5.82,5.82,0,0,0,.67-3.36V557.67a10.57,10.57,0,0,0-.18-2.32,2.62,2.62,0,0,0-.65-1.23,4.25,4.25,0,0,0-2.6-1.27v-.54h11v.54a4.24,4.24,0,0,0-2.78,1.46,3.06,3.06,0,0,0-.51,1.22,11.73,11.73,0,0,0-.15,2.14v13.27a10.63,10.63,0,0,0,.18,2.26,2.83,2.83,0,0,0,.66,1.29,4.22,4.22,0,0,0,2.6,1.26v.55Zm2.46-.9h5.13l-.68-.51a3.26,3.26,0,0,1-.77-.7,1.53,1.53,0,0,1-.16-.79c0-.19,0-.31,0-.38a1.27,1.27,0,0,1,0-.2v-17a1.48,1.48,0,0,1,0-.21c0-.08,0-.2,0-.37a1.48,1.48,0,0,1,.16-.79,3.24,3.24,0,0,1,.77-.71l1-.74h-5.76l1,.74a3.08,3.08,0,0,1,.77.69,1.49,1.49,0,0,1,.16.81c0,.2,0,.39,0,.58v17c0,.19,0,.38,0,.58a1.52,1.52,0,0,1-.16.8,3.08,3.08,0,0,1-.77.69Z" transform="translate(0.13 0.13)"/></g><g id="Calque_16" data-name="Calque 16"><rect class="cls-2" x="0.13" y="0.13" width="1366" height="901"/></g></svg>