<svg xmlns="http://www.w3.org/2000/svg" viewBox="0 0 1369.59 919.88"><defs><style>.cls-1{fill:#86b9d3;stroke-width:0.5px;}.cls-1,.cls-2{stroke:#86b9d3;}.cls-1,.cls-2,.cls-3{stroke-linecap:round;stroke-linejoin:round;}.cls-2,.cls-3,.cls-4{fill:none;}.cls-2,.cls-3{stroke-width:3px;}.cls-3{stroke:#000;}.cls-4{stroke:#1d1d1b;stroke-miterlimit:10;stroke-width:0.25px;}</style></defs><g id="plantes"><path class="cls-1" d="M161.5,521.5c14-19.4,35.23-17.77,61-3-32.94,4.84-61.18,22.83-61.1,4.85C161.41,522.77,161.44,522.16,161.5,521.5Z" transform="translate(3.46 0.13)"/><path class="cls-2" d="M163.57,539.19h-6.79L148.57,544l-1.07,10.86,10,12.64-9,3q-7.11-30,14-48" transform="translate(3.46 0.13)"/><line class="cls-3" x1="150.96" y1="533.63" x2="151.53" y2="545.01"/><path class="cls-2" d="M114.15,533.5c-48.34,21-66.44,75.42-62.65,154" transform="translate(3.46 0.13)"/><path class="cls-1" d="M62.5,515.5c11.06-.23,20.14.06,23,2,15.64,12.75,18,15,25.17,13.67C125.5,509.5,88.42,491.68,62.5,515.5Z" transform="translate(3.46 0.13)"/><path class="cls-1" d="M150.5,535.5c-11.84-15.24-25.84-13.56-41.84,3.69-8,3.86-13.74,9-13.16,17.31-10.59,6.08-10.6,10.88-5,15l20,3,19-12a38.24,38.24,0,0,0,2.23-4.43,10.42,10.42,0,0,0-4.49-13.14l-.09,0L130,544l15.5,9.5Z" transform="translate(3.46 0.13)"/><path class="cls-1" d="M148.57,544c8.27-7.55,14.14-11.29,15.93-8.5,17.3-5,24.8,7,23.15,35,7.69,3.65,13.26,7.31,13.58,11H186.5c-.06,11.21-4.22,19.65-10,27l-11-22-15,4.93c28,4.07,18,61.07,3,71.07l-23-49-14,9c-2.59-4.74-4.32-14.24-6-24-3.51,2.56-7.32,3.46-11.53,2-3.34,23.22-13.41,33.48-26.47,38L69,607a44.39,44.39,0,0,0-1.38-7.34c-3.9-13.67.07-22.16,16.88-22.2l3.78-1.61,2.22-4.39,39-9c5.72.92,8,3.9,8.45,8l7.55-1,3,1,9-3-10-12.64L148.57,544" transform="translate(3.46 0.13)"/><path class="cls-1" d="M86.78,551.89c0-1.42-2.23-2.89-6.28-4.39,8.92-34.8-38-25-60,31a133.69,133.69,0,0,0,19.43-8c16.8,6.1,32.66,6.17,47-3.64C89.45,561.62,90.22,556.55,86.78,551.89Z" transform="translate(3.46 0.13)"/><path class="cls-1" d="M51,599.42C43.5,566.5,7.5,593.5,12.5,642.5,52.5,639.5,82.5,602.5,51,599.42Z" transform="translate(3.46 0.13)"/><path class="cls-1" d="M42.5,678.5c-21.23-21.13-48-2-42.5,41.75C14.5,694.5,40.5,689.5,42.5,678.5Z" transform="translate(3.46 0.13)"/><path class="cls-1" d="M55.51,662.5c1.86,2.87,5,5.22,8.64,7.38L61.5,677.5l-10.13,7.2c-3.82,11.43-.56,20.36,9.22,27a32.88,32.88,0,0,1,6.9,6.15c9.07,10.92,18.05,22.21,27,33.65q11.27-18.29,3-39l15-6c11.25-6.21,15.82-13.56,8-23-3.86-3.1-9.41-6.08-16-9a223.66,223.66,0,0,1,28-28c7.46.28,12.37-1,10.43-6.52l-8.17-17.4c-3.74-3.38-7.72-4.84-12-4.13h-8c-7.55-5.06-16.21.57-25,7.47L72.5,638.5C59.82,642.41,54.91,650.85,55.51,662.5Z" transform="translate(3.46 0.13)"/><path class="cls-1" d="M159.5,641.5c34.54-21.17,58.65-4,76,38C212.5,659.5,162.5,668.5,159.5,641.5Z" transform="translate(3.46 0.13)"/><path class="cls-1" d="M154.1,656c-25.83-15.55-29.4,35-30.6,92.54C173.5,716.5,203.76,659.34,154.1,656Z" transform="translate(3.46 0.13)"/><path class="cls-2" d="M146.5,640.5c-27.86,31.33-47.07,70.65-49.91,125.08" transform="translate(3.46 0.13)"/><path class="cls-2" d="M55.51,662.5c-14.47,26-17.39,57.57,32,114" transform="translate(3.46 0.13)"/><path class="cls-2" d="M182.5,762.5c-22.71,34,12.65,77.11,59,122" transform="translate(3.46 0.13)"/><path class="cls-2" d="M111.5,782.5Q94.82,831.12,163.82,901" transform="translate(3.46 0.13)"/><path class="cls-1" d="M245.5,854.5c8-31-20.87-110.51-53-76l-4-10c17-1,31-29,61-42-20.38-8.5-41.6-5.45-64,14l-5,17-8.6-6-17,14.08L182.5,780.5c-2.31,6.25-1.73,13,0,20l-17,10-6-12-8-19.45V765.58l38-23.08c-23.63-13.15-78.23-.72-78,37l5,8L110,806.17,114.19,826c8.34,9.42,20.64,18.17,35.31,26.52,4.54,16.32,11.75,30.38,23,41l-4.77,7.5h23.64l-2.87-5.5,3-5L206.66,901h22.25c-1.57-10.44-7.07-24.68-21.41-47.5,1-20,4-29-14.74-30a13.42,13.42,0,0,1,5.74-7C203.24,816.76,225.71,837.15,245.5,854.5Z" transform="translate(3.46 0.13)"/><path class="cls-1" d="M152,780.31c6.45-1.3,13,1,19.5,4.19,3.51,1.89-2.8,8-11.46,15.08Z" transform="translate(3.46 0.13)"/><path class="cls-1" d="M151.09,857.76,140.5,856.5c-.78-4.94-5.53-8.68-15-11l-15.48,9c-25.52-18-42.52,10-21.65,46.5h42.72c6.41-16.5,13-30.77,22.56-36.14Z" transform="translate(3.46 0.13)"/><path class="cls-1" d="M10.5,849.5c23-34,41.39,8.38,49,70C8.08,884.11-22.5,855.5,10.5,849.5Z" transform="translate(3.46 0.13)"/><path class="cls-1" d="M0,873.25,10.5,890.5c6.79,2.46,10.71,6.12,12.92,10.5H0Z" transform="translate(3.46 0.13)"/><path class="cls-1" d="M0,832c9.73-34.61,36.9-38.27,70.5-30.52C39.14,829.42,11,850.06,0,832Z" transform="translate(3.46 0.13)"/><path class="cls-1" d="M59.5,861.69c-11.9-45.25,13-81.19,35.9-62.11C119.5,799.5,96.53,824.83,59.5,861.69Z" transform="translate(3.46 0.13)"/><path class="cls-1" d="M102.5,768.5c-9.15-31.93-27.19-21-52.69,25.85C103.42,797.33,130.79,791.87,102.5,768.5Z" transform="translate(3.46 0.13)"/><path class="cls-1" d="M99.64,737.79,124.8,751.5l6.46-4.63c2.94-19.08-7.39-25.13-30.28-18.85Z" transform="translate(3.46 0.13)"/><path class="cls-1" d="M42.5,720.25c-33.72-18.1-44,13.25-10,63.25C60.59,751,84.5,708.5,42.5,720.25Z" transform="translate(3.46 0.13)"/></g><g id="texte"><path d="M67.49,697.61,73,684.93a7.39,7.39,0,0,0,.7-2.72,2.75,2.75,0,0,0-.94-2.17,6.09,6.09,0,0,0-2.86-1.19v-.54H79v.52A6.57,6.57,0,0,0,77,680a8.23,8.23,0,0,0-1.64,1.93,26.56,26.56,0,0,0-1.7,3.28l-7.8,17.7h-.39L57,683.75a14.66,14.66,0,0,0-2-3.61,4.43,4.43,0,0,0-2.39-1.29v-.54H64v.54l-.39,0a5.14,5.14,0,0,0-2.37.6,1.61,1.61,0,0,0-.69,1.45,4.58,4.58,0,0,0,.46,1.82Zm-.86,2L59.42,683a5.12,5.12,0,0,1-.5-2,2.05,2.05,0,0,1,.22-1,3.89,3.89,0,0,1,.88-1H54.64a7.11,7.11,0,0,1,1.81,2.14c.27.5.5.93.69,1.3s.36.75.51,1.11l8,18.21ZM72.2,679a5.35,5.35,0,0,1,1.51,1.27,3,3,0,0,1,.52,1.55,7.94,7.94,0,0,1,1-1.6,7,7,0,0,1,1.3-1.22Z" transform="translate(3.46 0.13)"/><path d="M80.31,702.3v-.55a4.16,4.16,0,0,0,2.76-1.45,5.9,5.9,0,0,0,.67-3.36V683.67a10.57,10.57,0,0,0-.18-2.32,2.71,2.71,0,0,0-.65-1.23,4.28,4.28,0,0,0-2.6-1.27v-.54h11v.54a4.22,4.22,0,0,0-2.78,1.46,3.06,3.06,0,0,0-.51,1.22,11.58,11.58,0,0,0-.16,2.14v13.27A10.5,10.5,0,0,0,88,699.2a2.83,2.83,0,0,0,.66,1.29,4.19,4.19,0,0,0,2.6,1.26v.55Zm2.46-.9H87.9l-.68-.51a3.06,3.06,0,0,1-.77-.7,1.52,1.52,0,0,1-.17-.79V699a1.27,1.27,0,0,1,0-.2v-17a1.48,1.48,0,0,1,0-.21v-.37a1.47,1.47,0,0,1,.17-.79,3,3,0,0,1,.77-.71l1-.74H82.45l1,.74a3.18,3.18,0,0,1,.78.69,1.59,1.59,0,0,1,.16.81c0,.2,0,.39,0,.58v17c0,.19,0,.38,0,.58a1.63,1.63,0,0,1-.16.8,3.18,3.18,0,0,1-.78.69Z" transform="translate(3.46 0.13)"/><path d="M93.19,702.3v-.55A4.11,4.11,0,0,0,96,700.3a5.82,5.82,0,0,0,.67-3.36V683.67a10.57,10.57,0,0,0-.18-2.32,2.62,2.62,0,0,0-.65-1.23,4.25,4.25,0,0,0-2.6-1.27v-.54h11v.54a4.19,4.19,0,0,0-2.77,1.46,2.8,2.8,0,0,0-.51,1.22,10.76,10.76,0,0,0-.16,2.14v13.27a10.63,10.63,0,0,0,.18,2.26,3,3,0,0,0,.66,1.29,4.25,4.25,0,0,0,2.6,1.26v.55Zm2.46-.9h5.14l-.69-.51a3,3,0,0,1-.76-.7,1.43,1.43,0,0,1-.17-.79,3.46,3.46,0,0,0,0-.38,1.27,1.27,0,0,1,0-.2v-17a1.48,1.48,0,0,1,0-.21,3.56,3.56,0,0,0,0-.37,1.38,1.38,0,0,1,.17-.79,3,3,0,0,1,.76-.71l1-.74H95.34l1,.74a2.9,2.9,0,0,1,.77.69,1.49,1.49,0,0,1,.16.81c0,.2,0,.39,0,.58v17c0,.19,0,.38,0,.58a1.52,1.52,0,0,1-.16.8,2.9,2.9,0,0,1-.77.69Z" transform="translate(3.46 0.13)"/></g><g id="Calque_16" data-name="Calque 16"><rect class="cls-4" x="3.46" y="0.13" width="1366" height="901"/></g></svg>