<svg xmlns="http://www.w3.org/2000/svg" viewBox="0 0 1366.25 901.25"><defs><style>.cls-1,.cls-2{fill:#86b9d3;stroke:#86b9d3;stroke-linecap:round;stroke-linejoin:round;}.cls-1{stroke-width:0.5px;}.cls-3{fill:none;stroke:#1d1d1b;stroke-miterlimit:10;stroke-width:0.25px;}</style></defs><g id="femme_1_et_2" data-name="femme 1 et 2"><path class="cls-1" d="M306.5,143.5c-3.52-2.19-9.05.27-16,6,.51-10.6,4.95-15.2,16-9.69-1.34-8.56,1.41-15.34,6-21.31-.18,8.06-.28,15.6,0,20.39,3.32-5.68,7-9.7,11.09-12.29a1,1,0,0,1,1.41,1.33c-1.72,3.3-6.72,8.13-7.5,13.57,6.23-.5,9.16,1.87,9.17,6.8a2.14,2.14,0,0,1-2,2.13,5.84,5.84,0,0,0-4.19,2.07c3.14,11.56,1,17.73-6,19,8.71,3.54,14.93,12.28,20.68,22a9.27,9.27,0,0,1,.64,8.19l-.32.81c1.81,26.53,4.48,43.16,8,50V262l2.19,5.49a2.39,2.39,0,0,1-1.15,3l0,0-1,8c7,6,10,33,4,39l-74-18c3.14-31.85,9.25-53.62,19-63,2.52-8.3,9-12.13,20-11-2-20-22-23-7-55l-1-3c-4.33-.11-6.67-2.13-5-8C299,150.91,301.61,145.9,306.5,143.5Z" transform="translate(0.13 0.13)"/><path class="cls-2" d="M390.5,181.5c-3.45.13-6.06-3.47-8-10-3.9-1.93-4.31-5.95-3-11,2.51-13,12-13,19-2,3.47,2.7,4.54,5.94,2,10a4.05,4.05,0,0,1,1,4c3.18,7.92.19,10-5,10a75.32,75.32,0,0,1,10,7l-2,4,2,3.27-1,1.73c-.34,6.64-.2,12.82,1,18a187.7,187.7,0,0,0,11,21l-1,3c4.14,6.17,6.29,11.24,6,15l-7-4h-3l-1-8c-4.09-7.8-7.9-14.38-11-18l-1-7v7l2,6c11.39,14.84,13.47,43.13,11,78,.07,9.46,1.88,17.3,6,23l-12,3-30-10q-6.39-6.56-16-4l-6-2c-.16-50.29,3.64-90.44,21-96l8-3c1.8-3.85,1.72-11.32,1-20l-2,16v4l-7,2-.9-28.78a7.46,7.46,0,0,1,2.18-5.5l3.72-3.72h7Z" transform="translate(0.13 0.13)"/></g><g id="texte"><path d="M294.43,289.31l5.5-12.67a7.2,7.2,0,0,0,.7-2.73,2.73,2.73,0,0,0-.94-2.17,6.09,6.09,0,0,0-2.86-1.18V270H306v.53a6.63,6.63,0,0,0-2,1.13,8.22,8.22,0,0,0-1.65,1.93,27.47,27.47,0,0,0-1.69,3.28l-7.81,17.7h-.39l-8.5-19.12a14.41,14.41,0,0,0-2-3.61,4.37,4.37,0,0,0-2.39-1.29V270h11.43v.55h-.39a5.49,5.49,0,0,0-2.37.6,1.63,1.63,0,0,0-.69,1.46,4.68,4.68,0,0,0,.46,1.81Zm-.87,2-7.2-16.59a5.2,5.2,0,0,1-.51-2,1.88,1.88,0,0,1,.23-1,3.69,3.69,0,0,1,.88-1h-5.38a7.3,7.3,0,0,1,1.81,2.15c.27.49.5.92.68,1.3s.36.74.51,1.11l8,18.21Zm5.58-20.6a5.25,5.25,0,0,1,1.5,1.26,3,3,0,0,1,.52,1.55,8.41,8.41,0,0,1,1-1.6,6.69,6.69,0,0,1,1.3-1.21Z" transform="translate(0.13 0.13)"/><path d="M307.24,294v-.54A4.12,4.12,0,0,0,310,292a5.77,5.77,0,0,0,.67-3.36V275.37a10.64,10.64,0,0,0-.18-2.32,2.62,2.62,0,0,0-.65-1.23,4.19,4.19,0,0,0-2.6-1.26V270h10.95v.55a4.23,4.23,0,0,0-2.78,1.45,3.17,3.17,0,0,0-.51,1.23,11.69,11.69,0,0,0-.15,2.13v13.27a10.57,10.57,0,0,0,.18,2.26,2.83,2.83,0,0,0,.66,1.29,4.28,4.28,0,0,0,2.6,1.27V294Zm2.46-.89h5.13l-.68-.51a3.49,3.49,0,0,1-.77-.7,1.55,1.55,0,0,1-.16-.8c0-.18,0-.31,0-.37a1.48,1.48,0,0,1,0-.21v-17a1.48,1.48,0,0,1,0-.21c0-.07,0-.19,0-.37a1.53,1.53,0,0,1,.16-.79,3.26,3.26,0,0,1,.77-.7l1-.74h-5.76l1,.74a3.11,3.11,0,0,1,.77.68,1.54,1.54,0,0,1,.16.81c0,.2,0,.39,0,.58v17c0,.19,0,.38,0,.58a1.5,1.5,0,0,1-.16.8,2.89,2.89,0,0,1-.77.7Z" transform="translate(0.13 0.13)"/><path d="M320.13,294v-.54a4.17,4.17,0,0,0,2.76-1.46,5.87,5.87,0,0,0,.66-3.36V275.37a11.49,11.49,0,0,0-.17-2.32,2.81,2.81,0,0,0-.65-1.23,4.25,4.25,0,0,0-2.6-1.26V270h10.95v.55A4.21,4.21,0,0,0,328.3,272a3,3,0,0,0-.51,1.23,10.71,10.71,0,0,0-.16,2.13v13.27a9.83,9.83,0,0,0,.19,2.26,2.83,2.83,0,0,0,.66,1.29,4.25,4.25,0,0,0,2.6,1.27V294Zm2.46-.89h5.13l-.69-.51a3.38,3.38,0,0,1-.76-.7,1.54,1.54,0,0,1-.17-.8,3.25,3.25,0,0,0,0-.37c0-.07,0-.14,0-.21v-17c0-.07,0-.14,0-.21a3.35,3.35,0,0,0,0-.37,1.52,1.52,0,0,1,.17-.79,3.16,3.16,0,0,1,.76-.7l1-.74h-5.77l1,.74a3.44,3.44,0,0,1,.78.68,1.66,1.66,0,0,1,.15.81,5.72,5.72,0,0,1,0,.58v17a5.72,5.72,0,0,1,0,.58,1.62,1.62,0,0,1-.15.8,3.16,3.16,0,0,1-.78.7Z" transform="translate(0.13 0.13)"/><path d="M333,294v-.54a4.12,4.12,0,0,0,2.76-1.46,5.77,5.77,0,0,0,.67-3.36V275.37a10.64,10.64,0,0,0-.18-2.32,2.62,2.62,0,0,0-.65-1.23,4.19,4.19,0,0,0-2.6-1.26V270H344v.55a4.23,4.23,0,0,0-2.78,1.45,3.17,3.17,0,0,0-.51,1.23,11.69,11.69,0,0,0-.15,2.13v13.27a10.57,10.57,0,0,0,.18,2.26,2.83,2.83,0,0,0,.66,1.29,4.28,4.28,0,0,0,2.6,1.27V294Zm2.46-.89h5.13l-.68-.51a3.49,3.49,0,0,1-.77-.7,1.55,1.55,0,0,1-.16-.8c0-.18,0-.31,0-.37a1.48,1.48,0,0,1,0-.21v-17a1.48,1.48,0,0,1,0-.21c0-.07,0-.19,0-.37a1.53,1.53,0,0,1,.16-.79,3.26,3.26,0,0,1,.77-.7l1-.74h-5.77l1,.74a3.32,3.32,0,0,1,.77.68,1.54,1.54,0,0,1,.16.81c0,.2,0,.39,0,.58v17c0,.19,0,.38,0,.58a1.5,1.5,0,0,1-.16.8,3.07,3.07,0,0,1-.77.7Z" transform="translate(0.13 0.13)"/></g><g id="Calque_16" data-name="Calque 16"><rect class="cls-3" x="0.13" y="0.13" width="1366" height="901"/></g></svg>