<svg xmlns="http://www.w3.org/2000/svg" viewBox="0 0 1366.25 901.25"><defs><style>.cls-1{fill:#86b9d3;stroke:#86b9d3;stroke-linecap:round;stroke-linejoin:round;}.cls-2{fill:none;stroke:#1d1d1b;stroke-miterlimit:10;stroke-width:0.25px;}</style></defs><g id="montre"><path class="cls-1" d="M769.78,378.41c19.42-6,32.47,13.83,19,29.49a16.19,16.19,0,0,1-14.89,5.62c-18.61-3.17-21.95-27.73-4.68-34.91Z" transform="translate(0.13 0.13)"/></g><g id="texte"><path d="M775.11,396.14,771,401.73a4.3,4.3,0,0,0-1,2.39q0,2.06,3.57,2.34V407H764.3v-.52a5.65,5.65,0,0,0,1.88-.88q.68-.51,1.5-1.26A18.4,18.4,0,0,0,769,403l1-1.17.21-.25,4.46-6-4.21-6.36a1.75,1.75,0,0,0-.11-.18c-.06-.09-.15-.22-.28-.38l-1-1.46a14.05,14.05,0,0,0-2.2-2.63,4,4,0,0,0-2-1V383H776v.55a4.8,4.8,0,0,0-2.15.41,1.3,1.3,0,0,0-.59,1.22,4,4,0,0,0,.82,2.07l3.31,5.07,3.2-4.05a5.56,5.56,0,0,0,1.49-2.88c0-1.09-.94-1.7-2.83-1.84V383h8.44v.53a5.69,5.69,0,0,0-1.86.71,11.51,11.51,0,0,0-1.94,1.48,25.38,25.38,0,0,0-1.9,2c-.26.28-.47.53-.63.72l-3.57,4.49,6,8.86a21.33,21.33,0,0,0,2.81,3.48,4.61,4.61,0,0,0,2.33,1.21V407H777.55v-.54a9,9,0,0,0,1.74-.26,1.65,1.65,0,0,0,.87-.49,1.33,1.33,0,0,0,.27-.89,3.27,3.27,0,0,0-.67-1.74Zm-5.22,10a2.64,2.64,0,0,1-.6-1.6,7,7,0,0,1,.1-.93,14.72,14.72,0,0,1-2.84,2.53Zm15.59,0c-.44-.38-.78-.69-1-.95a13.61,13.61,0,0,1-1-1.2c-.95-1.3-1.51-2.08-1.69-2.35L773,388.56a7,7,0,0,1-1.47-3.25,2,2,0,0,1,.93-1.63h-5.7a7.79,7.79,0,0,1,1.38,1.19,26.8,26.8,0,0,1,1.68,2.25l1.09,1.57.46.67,8.93,13.41a5.14,5.14,0,0,1,.54,1.05,2.74,2.74,0,0,1,.25,1,2.7,2.7,0,0,1-.49,1.32Zm-3.89-22.45a2,2,0,0,1,1.09,1.65,3.49,3.49,0,0,1-.12.69,13.68,13.68,0,0,1,2.53-2.34Z" transform="translate(0.13 0.13)"/></g><g id="Calque_16" data-name="Calque 16"><rect class="cls-2" x="0.13" y="0.13" width="1366" height="901"/></g></svg>