<svg xmlns="http://www.w3.org/2000/svg" viewBox="0 0 1366.38 901.38"><defs><style>.cls-1{fill:#86b9d3;stroke:#86b9d3;stroke-linecap:round;stroke-linejoin:round;stroke-width:0.5px;}.cls-2{fill:none;stroke:#1d1d1b;stroke-miterlimit:10;stroke-width:0.25px;}</style></defs><g id="fenetre"><path class="cls-1" d="M69.65,0,136.5,21.5l3,41c9.62-12.81,27.49-22.62,48.56-31.25L191.5,276.5c-15.23-1.64-31.46-2-48-2L0,245V0Z" transform="translate(0.25 0.25)"/></g><g id="texte"><path d="M74.66,194.14l-4.13,5.59a4.35,4.35,0,0,0-1,2.39q0,2.06,3.57,2.34V205H63.85v-.52a5.48,5.48,0,0,0,1.88-.88c.46-.34,1-.76,1.51-1.26A18,18,0,0,0,68.56,201l1-1.17.21-.25,4.46-6.05L70,187.18a.69.69,0,0,0-.1-.18c-.06-.09-.15-.22-.28-.38l-1-1.46a14.45,14.45,0,0,0-2.2-2.63,4,4,0,0,0-2-1V181H75.53v.55a4.76,4.76,0,0,0-2.15.41,1.31,1.31,0,0,0-.6,1.22,4.06,4.06,0,0,0,.83,2.07l3.3,5.07,3.2-4.05a5.52,5.52,0,0,0,1.5-2.88c0-1.09-1-1.7-2.83-1.84V181h8.43v.53a5.65,5.65,0,0,0-1.85.71,11.51,11.51,0,0,0-1.94,1.48,25.38,25.38,0,0,0-1.9,2c-.26.28-.47.53-.63.72l-3.57,4.49,6,8.86a22,22,0,0,0,2.8,3.48,4.69,4.69,0,0,0,2.33,1.21V205H77.11v-.54a9,9,0,0,0,1.74-.26,1.65,1.65,0,0,0,.87-.49,1.33,1.33,0,0,0,.27-.89,3.27,3.27,0,0,0-.67-1.74Zm-5.22,10a2.62,2.62,0,0,1-.59-1.6,7,7,0,0,1,.1-.93,14.51,14.51,0,0,1-2.85,2.53Zm15.6,0c-.44-.38-.78-.69-1-1a13.61,13.61,0,0,1-1-1.2c-1-1.3-1.51-2.08-1.69-2.35l-8.7-13.05a7.05,7.05,0,0,1-1.48-3.25,2,2,0,0,1,.93-1.63H66.35a7.79,7.79,0,0,1,1.38,1.19,26.8,26.8,0,0,1,1.68,2.25l1.09,1.57.46.67,8.92,13.41a5.14,5.14,0,0,1,.55,1,3,3,0,0,1,.25,1,2.63,2.63,0,0,1-.5,1.32Zm-3.89-22.45a2,2,0,0,1,1.09,1.65,3.49,3.49,0,0,1-.12.69,13.68,13.68,0,0,1,2.53-2.34Z" transform="translate(0.25 0.25)"/><path d="M89.87,205v-.54A4.17,4.17,0,0,0,92.63,203a5.85,5.85,0,0,0,.67-3.36V186.37a10.64,10.64,0,0,0-.18-2.32,2.71,2.71,0,0,0-.65-1.23,4.22,4.22,0,0,0-2.6-1.26V181h10.95v.55A4.21,4.21,0,0,0,98,183a3.17,3.17,0,0,0-.51,1.23,11.69,11.69,0,0,0-.15,2.13v13.27a10.57,10.57,0,0,0,.18,2.26,2.83,2.83,0,0,0,.66,1.29,4.25,4.25,0,0,0,2.6,1.27V205Zm2.46-.89h5.13l-.68-.51a3.26,3.26,0,0,1-.77-.7,1.55,1.55,0,0,1-.16-.8c0-.18,0-.31,0-.37a1.48,1.48,0,0,1,0-.21v-17a1.48,1.48,0,0,1,0-.21c0-.07,0-.19,0-.37a1.53,1.53,0,0,1,.16-.79,3.06,3.06,0,0,1,.77-.7l1-.74H92l1,.74a3.32,3.32,0,0,1,.77.68,1.64,1.64,0,0,1,.16.81c0,.2,0,.39,0,.58v17c0,.19,0,.38,0,.58a1.6,1.6,0,0,1-.16.8,3.07,3.07,0,0,1-.77.7Z" transform="translate(0.25 0.25)"/></g><g id="Calque_16" data-name="Calque 16"><rect class="cls-2" x="0.25" y="0.25" width="1366" height="901"/></g></svg>