<svg xmlns="http://www.w3.org/2000/svg" viewBox="0 0 1366.25 901.25"><defs><style>.cls-1{fill:#86b9d3;stroke:#86b9d3;stroke-linecap:round;stroke-linejoin:round;}.cls-2{fill:none;stroke:#1d1d1b;stroke-miterlimit:10;stroke-width:0.25px;}</style></defs><g id="oiseaux_2_et_3" data-name="oiseaux 2 et 3"><path class="cls-1" d="M1088.5,143.5l9-8c1.72-6.53,7.2-6.33,15-2,8.76-1.31,15.07.05,19,4,5.45.92,18.29,1,31.33,1q-4.51,9.6-26.33,14c-10.23,28.36-26.52,32.55-45,28l13-32-7-3Z" transform="translate(0.13 0.13)"/><path class="cls-1" d="M1194.5,111.5l-3-16-13-38c27.26-3,47.1,8.27,48,56-.9,2.51,6.45,1.15,21.67-3.88a2.74,2.74,0,0,1,3.61,2.43,68.21,68.21,0,0,1-2.32,22.29,5.46,5.46,0,0,1-5.71,4c-4.37-.41-10.73-2.56-17.25-4.84.35,13.86-3.62,22.39-14,23v7.14a6.26,6.26,0,0,1-3.68,5.7c-11,4.95-23.29,6-36.32,5.16,8.28-10.79,16-22.43,18-43-2.73-.36-8.22-2-18-5.56l7-5.44Q1184.59,111.43,1194.5,111.5Z" transform="translate(0.13 0.13)"/></g><g id="texte"><path d="M1198.22,123.14l-4.13,5.59a4.28,4.28,0,0,0-1,2.39q0,2.06,3.57,2.34V134h-9.25v-.52a5.48,5.48,0,0,0,1.88-.88,17.94,17.94,0,0,0,1.5-1.26,16.56,16.56,0,0,0,1.33-1.33l1-1.17.21-.25,4.47-6-4.22-6.36a1.26,1.26,0,0,0-.1-.18c-.06-.09-.16-.22-.29-.38l-1-1.46a14.07,14.07,0,0,0-2.19-2.63,4,4,0,0,0-2-1V110h11.14v.55a4.74,4.74,0,0,0-2.14.41,1.31,1.31,0,0,0-.6,1.22,4.06,4.06,0,0,0,.83,2.07l3.3,5.07,3.2-4a5.52,5.52,0,0,0,1.5-2.88c0-1.09-1-1.7-2.84-1.84V110h8.44v.53a5.56,5.56,0,0,0-1.85.71,11.12,11.12,0,0,0-1.94,1.48,25.38,25.38,0,0,0-1.9,2c-.26.28-.47.53-.64.72l-3.56,4.49,6,8.86a21.39,21.39,0,0,0,2.8,3.48,4.65,4.65,0,0,0,2.33,1.21V134h-11.35v-.54a9,9,0,0,0,1.74-.26,1.74,1.74,0,0,0,.87-.49,1.33,1.33,0,0,0,.27-.89,3.27,3.27,0,0,0-.67-1.74Zm-5.22,10a2.64,2.64,0,0,1-.6-1.6,7.57,7.57,0,0,1,.11-.93,15.11,15.11,0,0,1-2.85,2.53Zm15.59,0c-.43-.38-.78-.69-1-1a13.61,13.61,0,0,1-1-1.2c-1-1.3-1.52-2.08-1.69-2.35l-8.7-13.05a7,7,0,0,1-1.48-3.25,2,2,0,0,1,.93-1.63h-5.69a7.79,7.79,0,0,1,1.38,1.19,26.8,26.8,0,0,1,1.68,2.25l1.09,1.57.45.67,8.93,13.41a5.69,5.69,0,0,1,.55,1,2.92,2.92,0,0,1,.24,1,2.6,2.6,0,0,1-.49,1.32Zm-3.88-22.45a2,2,0,0,1,1.09,1.65,3,3,0,0,1-.13.69,13.74,13.74,0,0,1,2.54-2.34Z" transform="translate(0.13 0.13)"/><path d="M1213.43,134v-.54a4.17,4.17,0,0,0,2.76-1.46,5.87,5.87,0,0,0,.66-3.36V115.37a10.79,10.79,0,0,0-.17-2.32,2.81,2.81,0,0,0-.65-1.23,4.22,4.22,0,0,0-2.6-1.26V110h11v.55a4.21,4.21,0,0,0-2.78,1.45,3.17,3.17,0,0,0-.51,1.23,11.53,11.53,0,0,0-.16,2.13v13.27a9.83,9.83,0,0,0,.19,2.26,2.83,2.83,0,0,0,.66,1.29,4.25,4.25,0,0,0,2.6,1.27V134Zm2.46-.89H1221l-.69-.51a3.38,3.38,0,0,1-.76-.7,1.54,1.54,0,0,1-.17-.8,3.25,3.25,0,0,0,0-.37V113.28a3.35,3.35,0,0,0,0-.37,1.52,1.52,0,0,1,.17-.79,3.16,3.16,0,0,1,.76-.7l1-.74h-5.77l1,.74a3.44,3.44,0,0,1,.78.68,1.66,1.66,0,0,1,.15.81,5.72,5.72,0,0,1,0,.58v17a5.72,5.72,0,0,1,0,.58,1.62,1.62,0,0,1-.15.8,3.16,3.16,0,0,1-.78.7Z" transform="translate(0.13 0.13)"/><path d="M1226.31,134v-.54a4.12,4.12,0,0,0,2.76-1.46,5.77,5.77,0,0,0,.67-3.36V115.37a10.64,10.64,0,0,0-.18-2.32,2.62,2.62,0,0,0-.65-1.23,4.19,4.19,0,0,0-2.6-1.26V110h11v.55a4.18,4.18,0,0,0-2.77,1.45,2.89,2.89,0,0,0-.51,1.23,10.71,10.71,0,0,0-.16,2.13v13.27a10.57,10.57,0,0,0,.18,2.26,2.83,2.83,0,0,0,.66,1.29,4.28,4.28,0,0,0,2.6,1.27V134Zm2.46-.89h5.14l-.69-.51a3.16,3.16,0,0,1-.76-.7,1.44,1.44,0,0,1-.17-.8,3.25,3.25,0,0,0,0-.37,1.48,1.48,0,0,1,0-.21v-17a1.48,1.48,0,0,1,0-.21,3.35,3.35,0,0,0,0-.37,1.43,1.43,0,0,1,.17-.79,3,3,0,0,1,.76-.7l1-.74h-5.76l1,.74a3.11,3.11,0,0,1,.77.68,1.54,1.54,0,0,1,.16.81c0,.2,0,.39,0,.58v17c0,.19,0,.38,0,.58a1.5,1.5,0,0,1-.16.8,2.89,2.89,0,0,1-.77.7Z" transform="translate(0.13 0.13)"/></g><g id="Calque_16" data-name="Calque 16"><rect class="cls-2" x="0.13" y="0.13" width="1366" height="901"/></g></svg>