<svg xmlns="http://www.w3.org/2000/svg" viewBox="0 0 1366.25 901.25"><defs><style>.cls-1{fill:#86b9d3;stroke:#86b9d3;stroke-linecap:round;stroke-linejoin:round;}.cls-2{fill:none;stroke:#1d1d1b;stroke-miterlimit:10;stroke-width:0.25px;}</style></defs><g id="manteau"><path class="cls-1" d="M1024.5,351.5l3-27c-21.66-3.1-47.21-.07-76.81,9.31l2.81,25.69-16.62-25.69C896.14,370.48,889.59,426,888.5,484.5l-2.32,10.4C878.12,464.08,874.29,421,873.54,369c-22.87-10.54-44.39-7-65,5.47v44.16c-1.17-1-3.62-1.47-11-.16-20.33,11.66-30.14,22.2-33,32,27.65,60.53,58.21,109,93,140,13.61,8.23,29,12.92,55-3l54,198c84,61.24,179,74,238,42,6-121.49-118.93-214.92-145.51-352.26C1051.13,434.6,1041.51,393.25,1024.5,351.5Z" transform="translate(0.13 0.13)"/></g><g id="texte"><path d="M990.24,599.14l-4.13,5.59a4.28,4.28,0,0,0-1,2.39q0,2.05,3.57,2.34V610h-9.24v-.52a5.65,5.65,0,0,0,1.88-.88q.68-.51,1.5-1.26a18.4,18.4,0,0,0,1.33-1.33l1-1.17.21-.25,4.46-6.05-4.21-6.36a1.08,1.08,0,0,0-.11-.18c-.06-.09-.15-.22-.28-.38l-1-1.46a14.05,14.05,0,0,0-2.2-2.63,4.13,4.13,0,0,0-2-1V586H991.1v.54A4.91,4.91,0,0,0,989,587a1.3,1.3,0,0,0-.59,1.22,4,4,0,0,0,.82,2.07l3.31,5.07,3.2-4.05a5.56,5.56,0,0,0,1.49-2.88c0-1.09-.94-1.7-2.83-1.85V586h8.44v.53a5.69,5.69,0,0,0-1.86.71,11.51,11.51,0,0,0-1.94,1.48,25.38,25.38,0,0,0-1.9,2q-.39.42-.63.72l-3.57,4.49,6,8.86a21.33,21.33,0,0,0,2.81,3.48,4.61,4.61,0,0,0,2.33,1.21V610H992.68v-.54a9,9,0,0,0,1.74-.26,1.65,1.65,0,0,0,.87-.49,1.33,1.33,0,0,0,.27-.89,3.27,3.27,0,0,0-.67-1.74Zm-5.22,10a2.64,2.64,0,0,1-.6-1.6,7,7,0,0,1,.1-.93,14.72,14.72,0,0,1-2.84,2.53Zm15.59,0c-.44-.38-.78-.69-1-1a13.61,13.61,0,0,1-1-1.2c-.95-1.3-1.51-2.08-1.69-2.35l-8.7-13.05a7,7,0,0,1-1.47-3.25,2,2,0,0,1,.93-1.63h-5.7a7.79,7.79,0,0,1,1.38,1.19,23.75,23.75,0,0,1,1.68,2.25l1.09,1.57.46.67,8.93,13.41a5.14,5.14,0,0,1,.54,1.05,2,2,0,0,1-.24,2.29Zm-3.89-22.45a2,2,0,0,1,1.09,1.65,3.49,3.49,0,0,1-.12.69,13.68,13.68,0,0,1,2.53-2.34Z" transform="translate(0.13 0.13)"/><path d="M1005.44,610v-.54a4.12,4.12,0,0,0,2.76-1.46,5.77,5.77,0,0,0,.67-3.36V591.37a10.57,10.57,0,0,0-.18-2.32,2.62,2.62,0,0,0-.65-1.23,4.25,4.25,0,0,0-2.6-1.27V586h10.95v.54a4.23,4.23,0,0,0-2.77,1.46,2.89,2.89,0,0,0-.51,1.23,10.71,10.71,0,0,0-.16,2.13v13.27a10.57,10.57,0,0,0,.18,2.26,2.83,2.83,0,0,0,.66,1.29,4.28,4.28,0,0,0,2.6,1.27V610Zm2.46-.89H1013l-.69-.51a3.47,3.47,0,0,1-.77-.71,1.48,1.48,0,0,1-.16-.79,3.25,3.25,0,0,0,0-.37,1.48,1.48,0,0,1,0-.21v-17a1.48,1.48,0,0,1,0-.21,3.35,3.35,0,0,0,0-.37,1.51,1.51,0,0,1,.16-.79,3.26,3.26,0,0,1,.77-.7l1-.74h-5.76l1,.74a3.11,3.11,0,0,1,.77.68,1.54,1.54,0,0,1,.16.81c0,.2,0,.39,0,.58v17c0,.19,0,.38,0,.58a1.5,1.5,0,0,1-.16.8,3.07,3.07,0,0,1-.77.7Z" transform="translate(0.13 0.13)"/><path d="M1018.33,610v-.54a4.17,4.17,0,0,0,2.76-1.46,5.87,5.87,0,0,0,.66-3.36V591.37a10.73,10.73,0,0,0-.17-2.32,2.81,2.81,0,0,0-.65-1.23,4.31,4.31,0,0,0-2.6-1.27V586h10.95v.54a4.26,4.26,0,0,0-2.78,1.46,3.17,3.17,0,0,0-.51,1.23,10.71,10.71,0,0,0-.16,2.13v13.27a9.83,9.83,0,0,0,.19,2.26,2.83,2.83,0,0,0,.66,1.29,4.25,4.25,0,0,0,2.6,1.27V610Zm2.46-.89h5.13l-.69-.51a3.36,3.36,0,0,1-.76-.71,1.47,1.47,0,0,1-.17-.79,3.25,3.25,0,0,0,0-.37V589.28a3.35,3.35,0,0,0,0-.37,1.5,1.5,0,0,1,.17-.79,3.16,3.16,0,0,1,.76-.7l1-.74h-5.77l1,.74a3.44,3.44,0,0,1,.78.68,1.66,1.66,0,0,1,.15.81,5.72,5.72,0,0,1,0,.58v17a5.72,5.72,0,0,1,0,.58,1.62,1.62,0,0,1-.15.8,3.38,3.38,0,0,1-.78.7Z" transform="translate(0.13 0.13)"/><path d="M1031.21,610v-.54A4.12,4.12,0,0,0,1034,608a5.77,5.77,0,0,0,.67-3.36V591.37a10.57,10.57,0,0,0-.18-2.32,2.62,2.62,0,0,0-.65-1.23,4.25,4.25,0,0,0-2.6-1.27V586h11v.54a4.28,4.28,0,0,0-2.78,1.46,3,3,0,0,0-.5,1.23,10.71,10.71,0,0,0-.16,2.13v13.27a10.57,10.57,0,0,0,.18,2.26,2.83,2.83,0,0,0,.66,1.29,4.28,4.28,0,0,0,2.6,1.27V610Zm2.46-.89h5.13l-.68-.51a3.47,3.47,0,0,1-.77-.71,1.48,1.48,0,0,1-.16-.79c0-.18,0-.31,0-.37a1.48,1.48,0,0,1,0-.21v-17a1.48,1.48,0,0,1,0-.21c0-.07,0-.19,0-.37a1.51,1.51,0,0,1,.16-.79,3.26,3.26,0,0,1,.77-.7l1-.74h-5.76l1,.74a3.11,3.11,0,0,1,.77.68,1.54,1.54,0,0,1,.16.81c0,.2,0,.39,0,.58v17c0,.19,0,.38,0,.58a1.5,1.5,0,0,1-.16.8,3.07,3.07,0,0,1-.77.7Z" transform="translate(0.13 0.13)"/></g><g id="Calque_16" data-name="Calque 16"><rect class="cls-2" x="0.13" y="0.13" width="1366" height="901"/></g></svg>