<svg xmlns="http://www.w3.org/2000/svg" viewBox="0 0 1366.25 901.25"><defs><style>.cls-1{fill:#86b9d3;stroke:#86b9d3;stroke-linecap:round;stroke-linejoin:round;}.cls-2{fill:none;stroke:#1d1d1b;stroke-miterlimit:10;stroke-width:0.25px;}</style></defs><g id="au_bonheur_des_dames" data-name="au bonheur des dames"><path class="cls-1" d="M334.11,687.5c-37.84-7.24-41.15-57.33-45.61-106-29,0-16-15-31-18-6.23,4.93-11.66,4.89-16-2-16.27,9.36-24-15-6-16.61-1.33-15.17-.25-25.49,4-29.39,1.78-6.23,5.92-8.56,13-6,1.92-10.56,8.42-6.69,15.82,0,8.62-3.82,22.4-2.38,37.11,0,6.74-13.84,14.8-10.32,23.2-2.32,6.67-4.05,13-5.83,17.87,1.32,12.77-14,16.48-3.3,21,5,5,6,19-3,30,1,8-9,16-10.23,23.91,4.68,4.6,6.71,5,15.76,3.8,25.71,9.29,5.61,11,14.93-2.71,16.61-8.17,5.44-16.33-3.93-21.51,10.72a8.72,8.72,0,0,1-7,5.71c-7.8,1.08-12.61,4.38-9.47,13.57Q380,634.12,352.67,684C344,689.35,339,688.43,334.11,687.5Z" transform="translate(0.13 0.13)"/></g><g id="texte"><path d="M317.58,569.14l-4.13,5.59a4.28,4.28,0,0,0-1,2.39q0,2.05,3.57,2.34V580h-9.24v-.52a5.65,5.65,0,0,0,1.88-.88q.68-.51,1.5-1.26a18.4,18.4,0,0,0,1.33-1.33l1-1.17.21-.25,4.46-6.05-4.21-6.36a1.08,1.08,0,0,0-.11-.18c-.06-.09-.15-.22-.28-.38l-1-1.46a14.05,14.05,0,0,0-2.2-2.63,4.13,4.13,0,0,0-2-1V556h11.15v.54a4.91,4.91,0,0,0-2.15.42,1.32,1.32,0,0,0-.59,1.22,4,4,0,0,0,.82,2.07l3.31,5.07,3.2-4.05a5.56,5.56,0,0,0,1.49-2.88c0-1.09-.94-1.7-2.83-1.85V556h8.44v.53a5.69,5.69,0,0,0-1.86.71,11.51,11.51,0,0,0-1.94,1.48,25.38,25.38,0,0,0-1.9,2q-.39.42-.63.72l-3.57,4.49,6,8.86a21.33,21.33,0,0,0,2.81,3.48,4.65,4.65,0,0,0,2.33,1.21V580H320v-.54a9,9,0,0,0,1.74-.26,1.65,1.65,0,0,0,.87-.49,1.33,1.33,0,0,0,.27-.89,3.27,3.27,0,0,0-.67-1.74Zm-5.22,10a2.64,2.64,0,0,1-.6-1.6,7,7,0,0,1,.1-.93,14.72,14.72,0,0,1-2.84,2.53Zm15.59,0c-.44-.38-.78-.69-1-1a13.61,13.61,0,0,1-1-1.2c-.95-1.3-1.51-2.08-1.69-2.35l-8.7-13.05a7,7,0,0,1-1.47-3.25,2,2,0,0,1,.93-1.63h-5.7a7.79,7.79,0,0,1,1.38,1.19,23.75,23.75,0,0,1,1.68,2.25l1.09,1.57.46.67,8.93,13.41a5.14,5.14,0,0,1,.54,1.05,2,2,0,0,1-.24,2.29Zm-3.89-22.45a2,2,0,0,1,1.09,1.65,3.49,3.49,0,0,1-.12.69,13.68,13.68,0,0,1,2.53-2.34Z" transform="translate(0.13 0.13)"/><path d="M332.78,580v-.54a4.12,4.12,0,0,0,2.76-1.46,5.77,5.77,0,0,0,.67-3.36V561.37a10.57,10.57,0,0,0-.18-2.32,2.62,2.62,0,0,0-.65-1.23,4.25,4.25,0,0,0-2.6-1.27V556h11v.54A4.23,4.23,0,0,0,341,558a2.89,2.89,0,0,0-.51,1.23,10.71,10.71,0,0,0-.16,2.13v13.27a10.57,10.57,0,0,0,.18,2.26,2.93,2.93,0,0,0,.66,1.29,4.28,4.28,0,0,0,2.6,1.27V580Zm2.46-.89h5.14l-.69-.51a3.15,3.15,0,0,1-.76-.71,1.38,1.38,0,0,1-.17-.79,3.25,3.25,0,0,0,0-.37,1.48,1.48,0,0,1,0-.21v-17a1.48,1.48,0,0,1,0-.21,3.35,3.35,0,0,0,0-.37,1.41,1.41,0,0,1,.17-.79,3,3,0,0,1,.76-.7l1-.74h-5.76l1,.74a3.11,3.11,0,0,1,.77.68,1.54,1.54,0,0,1,.16.81c0,.2,0,.39,0,.58v17c0,.19,0,.38,0,.58a1.5,1.5,0,0,1-.16.8,3.07,3.07,0,0,1-.77.7Z" transform="translate(0.13 0.13)"/><path d="M359.94,575.31l5.5-12.67a7.24,7.24,0,0,0,.71-2.73,2.74,2.74,0,0,0-.95-2.17,6.1,6.1,0,0,0-2.85-1.19V556h9.12v.53a6.54,6.54,0,0,0-2,1.13,8.2,8.2,0,0,0-1.64,1.93,27.31,27.31,0,0,0-1.7,3.28l-7.8,17.7h-.39l-8.51-19.12a14.46,14.46,0,0,0-2-3.61,4.48,4.48,0,0,0-2.39-1.3V556h11.42v.54l-.38,0a5.5,5.5,0,0,0-2.38.6,1.63,1.63,0,0,0-.68,1.46,4.68,4.68,0,0,0,.45,1.81Zm-.86,2-7.21-16.59a5.2,5.2,0,0,1-.51-2,2,2,0,0,1,.23-.95,3.87,3.87,0,0,1,.88-1h-5.38a7.15,7.15,0,0,1,1.81,2.15c.27.49.5.92.69,1.3s.35.74.51,1.11l8,18.21Zm5.57-20.6a5.25,5.25,0,0,1,1.5,1.26,2.89,2.89,0,0,1,.52,1.55,8.41,8.41,0,0,1,1-1.6,7,7,0,0,1,1.3-1.21Z" transform="translate(0.13 0.13)"/></g><g id="Calque_16" data-name="Calque 16"><rect class="cls-2" x="0.13" y="0.13" width="1366" height="901"/></g></svg>